<?xml version="1.0" encoding="iso-8859-1"?>
<!-- Generator: Adobe Illustrator 19.0.0, SVG Export Plug-In . SVG Version: 6.00 Build 0)  -->
<svg xmlns="http://www.w3.org/2000/svg" xmlns:xlink="http://www.w3.org/1999/xlink" version="1.1" id="Capa_1" x="0px" y="0px" viewBox="0 0 480.001 480.001" style="enable-background:new 0 0 480.001 480.001;" xml:space="preserve" width="512px" height="512px">
<g>
	<g>
		<path d="M123.584,102.504C114.582,93.2,102.178,87.963,89.232,88h-2.464c-12.933-0.026-25.319,5.21-34.312,14.504    c-8.46,8.698-12.952,20.503-12.416,32.624l0.936,21.536c1.418,24.644,22.039,43.772,46.72,43.336h0.608    c24.681,0.436,45.302-18.692,46.72-43.336L136,135.128C136.536,123.007,132.044,111.202,123.584,102.504z M119.04,156    c-1.084,16.063-14.642,28.414-30.736,28h-0.608c-16.094,0.414-29.652-11.937-30.736-28l-0.28-6.536    c15.25-0.679,29.893-6.174,41.824-15.696c4.92,7.276,12.347,12.485,20.864,14.632L119.04,156z M109.008,118.184    c-0.445-3.412-3.023-6.157-6.4-6.816c-3.365-0.696-6.795,0.854-8.496,3.84c-0.104,0.168-10.032,15.872-38.048,18.272    c-0.069-7.412,2.782-14.553,7.936-19.88c5.973-6.155,14.191-9.62,22.768-9.6h2.464c8.577-0.02,16.795,3.445,22.768,9.6    c4.667,4.863,7.437,11.238,7.808,17.968C114.272,129.094,110.256,124.118,109.008,118.184z" fill="#FFFFFF"/>
	</g>
</g>
<g>
	<g>
		<path d="M435.584,294.504c-9.002-9.304-21.406-14.541-34.352-14.504h-2.464c-12.933-0.026-25.319,5.21-34.312,14.504    c-8.46,8.698-12.953,20.503-12.416,32.624l0.936,21.536c1.418,24.644,22.039,43.772,46.72,43.336h0.608    c24.681,0.436,45.302-18.692,46.72-43.336L448,327.128C448.536,315.007,444.044,303.202,435.584,294.504z M432,326.48L431.04,348    c-1.084,16.063-14.642,28.414-30.736,28h-0.608c-16.094,0.414-29.652-11.937-30.736-28L368,326.44    c-0.309-7.751,2.584-15.287,8-20.84c5.973-6.155,14.191-9.62,22.768-9.6h2.464c8.577-0.02,16.795,3.445,22.768,9.6    C429.426,311.163,432.32,318.716,432,326.48z" fill="#FFFFFF"/>
	</g>
</g>
<g>
	<g>
		<path d="M247.134,116.344c-8.584-8.303-22.206-8.303-30.79,0l-89.312,89.312c-1.502,1.502-3.54,2.346-5.664,2.344H40    c-22.08,0.026-39.974,17.92-40,40v112c0,13.255,10.745,24,24,24c2.725,0,5.43-0.463,8-1.368V392c0,4.418,3.582,8,8,8h96    c4.418,0,8-3.582,8-8V262.288c-0.001-2.024,0.765-3.974,2.144-5.456l101.512-109.176    C256.159,138.866,255.925,124.847,247.134,116.344z M236.231,136.469c-0.029,0.028-0.058,0.056-0.087,0.083L134.4,245.944    c-4.12,4.445-6.407,10.283-6.4,16.344V384H48V264c0-4.418-3.582-8-8-8s-8,3.582-8,8v96c0,4.418-3.582,8-8,8s-8-3.582-8-8V248    c0-13.255,10.745-24,24-24h81.368c6.371,0.02,12.485-2.512,16.976-7.032l89.312-89.312c2.435-2.31,6.253-2.31,8.688,0    C238.746,130.121,238.696,134.067,236.231,136.469z" fill="#FFFFFF"/>
	</g>
</g>
<g>
	<g>
		<path d="M88,232c-4.418,0-8,3.582-8,8v96c0,4.418,3.582,8,8,8s8-3.582,8-8v-96C96,235.582,92.418,232,88,232z" fill="#FFFFFF"/>
	</g>
</g>
<g>
	<g>
		<path d="M259.544,294.504c-8.993-9.294-21.379-14.53-34.312-14.504h-2.464c-12.933-0.026-25.319,5.21-34.312,14.504    c-8.46,8.698-12.953,20.503-12.416,32.624l0.936,21.536c1.418,24.644,22.039,43.772,46.72,43.336h0.608    c24.681,0.436,45.302-18.692,46.72-43.336l0.936-21.536C272.497,315.007,268.004,303.202,259.544,294.504z M256,326.48L255.04,348    c-1.084,16.063-14.642,28.414-30.736,28h-0.608c-16.094,0.414-29.652-11.937-30.736-28L192,326.44    c-0.309-7.751,2.584-15.287,8-20.84c5.973-6.155,14.191-9.62,22.768-9.6h2.464c8.577-0.02,16.795,3.445,22.768,9.6    C253.426,311.163,256.32,318.716,256,326.48z" fill="#FFFFFF"/>
	</g>
</g>
<g>
	<g>
		<path d="M265.336,400h-82.672c-21.344,0.022-38.642,17.32-38.664,38.664V472c0,4.418,3.582,8,8,8s8-3.582,8-8v-33.336    c0.013-12.512,10.153-22.651,22.664-22.664h82.672c12.512,0.013,22.651,10.152,22.664,22.664V472c0,4.418,3.582,8,8,8s8-3.582,8-8    v-33.336C303.978,417.32,286.68,400.022,265.336,400z" fill="#FFFFFF"/>
	</g>
</g>
<g>
	<g>
		<path d="M441.336,400h-82.672c-21.344,0.022-38.642,17.32-38.664,38.664V472c0,4.418,3.582,8,8,8s8-3.582,8-8v-33.336    c0.013-12.512,10.153-22.651,22.664-22.664h82.672c12.512,0.013,22.651,10.152,22.664,22.664V472c0,4.418,3.582,8,8,8s8-3.582,8-8    v-33.336C479.978,417.32,462.68,400.022,441.336,400z" fill="#FFFFFF"/>
	</g>
</g>
<g>
	<g>
		<path d="M456.4,0H175.6c-13.137,0.128-23.693,10.863-23.6,24v120c0,4.418,3.582,8,8,8s8-3.582,8-8V48h296v192    c0.103,4.305-3.295,7.882-7.6,8h-273c-4.418,0-8,3.582-8,8s3.582,8,8,8h273c13.137-0.128,23.693-10.863,23.6-24V24    C480.093,10.863,469.537,0.128,456.4,0z M464,32H168v-8c-0.103-4.305,3.295-7.882,7.6-8h280.8c4.305,0.118,7.703,3.695,7.6,8V32z" fill="#FFFFFF"/>
	</g>
</g>
<g>
	<g>
		<path d="M440,102c-4.418,0-8,3.582-8,8v114c0,4.418,3.582,8,8,8s8-3.582,8-8V110C448,105.582,444.418,102,440,102z" fill="#FFFFFF"/>
	</g>
</g>
<g>
	<g>
		<path d="M408,152c-4.418,0-8,3.582-8,8v64c0,4.418,3.582,8,8,8s8-3.582,8-8v-64C416,155.582,412.418,152,408,152z" fill="#FFFFFF"/>
	</g>
</g>
<g>
	<g>
		<path d="M376,136c-4.418,0-8,3.582-8,8v80c0,4.418,3.582,8,8,8s8-3.582,8-8v-80C384,139.582,380.418,136,376,136z" fill="#FFFFFF"/>
	</g>
</g>
<g>
	<g>
		<path d="M344,184c-4.418,0-8,3.582-8,8v32c0,4.418,3.582,8,8,8s8-3.582,8-8v-32C352,187.582,348.418,184,344,184z" fill="#FFFFFF"/>
	</g>
</g>
<g>
	<g>
		<path d="M444.44,65.344c-3.676-2.452-8.644-1.46-11.096,2.216l-27.312,40.96L380.8,89.6c-3.521-2.669-8.539-1.977-11.208,1.544    c-0.304,0.401-0.569,0.829-0.792,1.28l-31.152,62.312L307.2,177.6c-3.535,2.651-4.251,7.665-1.6,11.2    c2.651,3.535,7.665,4.251,11.2,1.6l32-24c1.008-0.742,1.83-1.709,2.4-2.824l27.704-55.424L403.2,126.4    c3.534,2.651,8.549,1.936,11.2-1.599c0.089-0.118,0.174-0.239,0.256-0.361l32-48C449.108,72.764,448.116,67.796,444.44,65.344z" fill="#FFFFFF"/>
	</g>
</g>
<g>
	<g>
		<path d="M288,64h-96c-4.418,0-8,3.582-8,8s3.582,8,8,8h96c4.418,0,8-3.582,8-8S292.418,64,288,64z" fill="#FFFFFF"/>
	</g>
</g>
<g>
	<g>
		<path d="M336,64h-16c-4.418,0-8,3.582-8,8s3.582,8,8,8h16c4.418,0,8-3.582,8-8S340.418,64,336,64z" fill="#FFFFFF"/>
	</g>
</g>
<g>
</g>
<g>
</g>
<g>
</g>
<g>
</g>
<g>
</g>
<g>
</g>
<g>
</g>
<g>
</g>
<g>
</g>
<g>
</g>
<g>
</g>
<g>
</g>
<g>
</g>
<g>
</g>
<g>
</g>
</svg>
