<?xml version="1.0" encoding="iso-8859-1"?>
<!-- Generator: Adobe Illustrator 19.0.0, SVG Export Plug-In . SVG Version: 6.00 Build 0)  -->
<svg xmlns="http://www.w3.org/2000/svg" xmlns:xlink="http://www.w3.org/1999/xlink" version="1.1" id="Capa_1" x="0px" y="0px" viewBox="0 0 507.9 507.9" style="enable-background:new 0 0 507.9 507.9;" xml:space="preserve" width="512px" height="512px">
<g>
	<g>
		<path d="M434.2,106.5h-41.3c-4.2-45.9-42.8-81.9-89.8-81.9c-14.3,0-28.3,3.4-41,9.9c-21.6-22-51-34.5-81.9-34.5    C119.6-0.1,69.8,47.2,65.8,106.8C28.9,110.8,0,142.2,0,180.2c0,40.6,33.1,73.7,73.7,73.7h360.5c40.7,0,73.7-33.1,73.7-73.7    S474.8,106.5,434.2,106.5z M434.2,237.5H73.7c-31.6,0-57.4-25.7-57.4-57.4s25.8-57.3,57.4-57.3h8.2v-8.2    c0-54.2,44.1-98.3,98.3-98.3c28.4,0,55.4,12.3,74.1,33.8l4.5,5.2l5.9-3.6c11.6-7.1,24.9-10.9,38.4-10.9    c40.7,0,73.7,33.1,73.7,73.7v8.2h57.4c31.6,0,57.4,25.7,57.4,57.4C491.6,211.8,465.9,237.5,434.2,237.5z" fill="#FFFFFF"/>
	</g>
</g>
<g>
	<g>
		<path d="M376.8,475.1V327.6h-213v147.5h0.1h73.7v16.4H213v16.4h24.6h65.5h24.6v-16.4h-24.6v-16.4H376.8z M286.8,491.5H254v-16.4    h32.8V491.5z M237.7,458.7h-57.4V344h180.3v114.7h-57.4H237.7z" fill="#FFFFFF"/>
	</g>
</g>
<g>
	<g>
		<path d="M8.2,344v163.9h114.7V344H8.2z M106.5,491.5H24.6V360.4h81.9V491.5z" fill="#FFFFFF"/>
	</g>
</g>
<g>
	<g>
		<path d="M417.9,376.8v131.1h81.9V376.8H417.9z M434.2,393.2h49.2v65.5h-49.2V393.2z M483.5,491.5h-49.2v-16.4h49.2V491.5z" fill="#FFFFFF"/>
	</g>
</g>
<g>
	<g>
		<rect x="57.4" y="466.9" width="16.4" height="16.4" fill="#FFFFFF"/>
	</g>
</g>
<g>
	<g>
		<polygon points="155.7,270.3 155.7,286.7 57.4,286.7 57.4,327.6 73.7,327.6 73.7,303.1 172.1,303.1 172.1,270.3   " fill="#FFFFFF"/>
	</g>
</g>
<g>
	<g>
		<polygon points="368.7,286.7 368.7,270.3 352.3,270.3 352.3,303.1 450.6,303.1 450.6,327.6 467,327.6 467,286.7   " fill="#FFFFFF"/>
	</g>
</g>
<g>
	<g>
		<rect x="262.2" y="270.3" width="16.4" height="49.2" fill="#FFFFFF"/>
	</g>
</g>
<g>
</g>
<g>
</g>
<g>
</g>
<g>
</g>
<g>
</g>
<g>
</g>
<g>
</g>
<g>
</g>
<g>
</g>
<g>
</g>
<g>
</g>
<g>
</g>
<g>
</g>
<g>
</g>
<g>
</g>
</svg>
